<svg width="20" height="20" viewBox="0 0 20 20" fill="none" xmlns="http://www.w3.org/2000/svg">
<path d="M8.33335 1.875C7.98818 1.875 7.70835 2.15482 7.70835 2.5V3.125H4.16669C3.82151 3.125 3.54169 3.40482 3.54169 3.75C3.54169 4.09518 3.82151 4.375 4.16669 4.375H15.8334C16.1785 4.375 16.4584 4.09518 16.4584 3.75C16.4584 3.40482 16.1785 3.125 15.8334 3.125H12.2917V2.5C12.2917 2.15482 12.0119 1.875 11.6667 1.875H8.33335Z" fill="#6D6976"/>
<path d="M8.33335 8.87499C8.67853 8.87499 8.95835 9.15482 8.95835 9.49999L8.95835 15.3333C8.95835 15.6785 8.67853 15.9583 8.33335 15.9583C7.98818 15.9583 7.70835 15.6785 7.70835 15.3333V9.49999C7.70835 9.15482 7.98818 8.87499 8.33335 8.87499Z" fill="#6D6976"/>
<path d="M12.2917 9.49999C12.2917 9.15482 12.0119 8.87499 11.6667 8.87499C11.3215 8.87499 11.0417 9.15482 11.0417 9.49999V15.3333C11.0417 15.6785 11.3215 15.9583 11.6667 15.9583C12.0119 15.9583 12.2917 15.6785 12.2917 15.3333V9.49999Z" fill="#6D6976"/>
<path fill-rule="evenodd" clip-rule="evenodd" d="M4.99287 6.59765C5.02804 6.28113 5.29558 6.04167 5.61405 6.04167H14.386C14.7045 6.04167 14.972 6.28113 15.0072 6.59765L15.174 8.09877C15.4763 10.8199 15.4763 13.5661 15.174 16.2872L15.1575 16.435C15.0375 17.5151 14.2004 18.3764 13.1241 18.5271C11.0515 18.8172 8.94854 18.8172 6.87592 18.5271C5.79964 18.3764 4.96252 17.5151 4.8425 16.435L4.82608 16.2872C4.52374 13.5661 4.52374 10.8199 4.82608 8.09877L4.99287 6.59765ZM6.17345 7.29167L6.06844 8.23681C5.77629 10.8662 5.77629 13.5198 6.06844 16.1492L6.08486 16.2969C6.14178 16.8092 6.53879 17.2177 7.04923 17.2891C9.00688 17.5632 10.9932 17.5632 12.9508 17.2891C13.4612 17.2177 13.8583 16.8092 13.9152 16.2969L13.9316 16.1492C14.2237 13.5198 14.2237 10.8662 13.9316 8.23681L13.8266 7.29167H6.17345Z" fill="#6D6976"/>
</svg>
